<?xml version="1.0" encoding="utf-8"?>
<!-- Generator: Adobe Illustrator 25.3.1, SVG Export Plug-In . SVG Version: 6.00 Build 0)  -->
<svg version="1.1" id="图层_1" xmlns="http://www.w3.org/2000/svg" xmlns:xlink="http://www.w3.org/1999/xlink" x="0px" y="0px"
	 viewBox="0 0 290 290" style="enable-background:new 0 0 290 290;" xml:space="preserve">
<style type="text/css">
	.st0{fill:url(#SVGID_1_);stroke:#FFFFFF;stroke-width:0.4851;stroke-miterlimit:10;}
	.st1{fill:url(#SVGID_2_);stroke:#FFFFFF;stroke-width:0.4851;stroke-miterlimit:10;}
	.st2{fill:url(#SVGID_3_);stroke:#FFFFFF;stroke-width:0.4851;stroke-miterlimit:10;}
</style>
<g>
	<linearGradient id="SVGID_1_" gradientUnits="userSpaceOnUse" x1="34.5142" y1="155.2164" x2="108.4517" y2="155.2164">
		<stop  offset="0" style="stop-color:#F6BDA3"/>
		<stop  offset="9.640605e-02" style="stop-color:#F1AFA5"/>
		<stop  offset="0.3413" style="stop-color:#E591A9"/>
		<stop  offset="0.4788" style="stop-color:#E085AB"/>
		<stop  offset="0.5956" style="stop-color:#D99DBC"/>
		<stop  offset="0.7249" style="stop-color:#D4B0C9"/>
		<stop  offset="0.8581" style="stop-color:#D1BBD1"/>
		<stop  offset="1" style="stop-color:#D0BFD4"/>
	</linearGradient>
	<path class="st0" d="M83.8,159.2c2.2-10.4,4.3-19.2,5.9-28.2c0.6-3.4,1.9-4.9,5.4-4.6c2.1,0.2,4.2,0.1,6.4,0c7.6-0.1,7.8,0,6.2,7.7
		c-3,14.9-6.2,29.7-9.2,44.6c-0.7,3.7-2.5,4.5-6.2,5.1c-11.7,1.7-19-2.2-22.8-13.8c-2.1-6.2-6.1-11.9-9.7-18.8
		c-2.1,9.6-4.3,18.2-5.9,26.8c-0.8,4.4-2.8,6.2-7.2,5.6c-2.1-0.3-4.2,0-6.4,0.1c-5.9,0.1-6.5-0.6-5.3-6.6
		c2.1-10.1,4.3-20.1,6.4-30.2c1.2-5.6,2.4-11.2,3.4-16.8c0.5-2.7,1.6-4.2,4.5-3.8c0.2,0,0.3,0,0.5,0c5.5,0.1,12.1-1.5,16.3,0.9
		c4,2.3,5.5,8.8,8.1,13.6C77.2,146.6,80.1,152.2,83.8,159.2z"/>
	<linearGradient id="SVGID_2_" gradientUnits="userSpaceOnUse" x1="114.0335" y1="155.0243" x2="184.4246" y2="155.0243">
		<stop  offset="0" style="stop-color:#F6BDA3"/>
		<stop  offset="9.640605e-02" style="stop-color:#F1AFA5"/>
		<stop  offset="0.3413" style="stop-color:#E591A9"/>
		<stop  offset="0.4788" style="stop-color:#E085AB"/>
		<stop  offset="0.5956" style="stop-color:#D99DBC"/>
		<stop  offset="0.7249" style="stop-color:#D4B0C9"/>
		<stop  offset="0.8581" style="stop-color:#D1BBD1"/>
		<stop  offset="1" style="stop-color:#D0BFD4"/>
	</linearGradient>
	<path class="st1" d="M135,170.8c7.1,0,13.6,0.2,20.1-0.2c1.1-0.1,2.5-2,3-3.4c0.7-1.7,0.7-3.7,1-5.9c-1.4-0.2-2.4-0.4-3.3-0.4
		c-7.1-0.4-9-3.9-5.5-10.1c0.5-1,2.3-1.7,3.5-1.8c7.7-0.2,15.4,0,23.1-0.1c2.8,0,4,1.2,3.5,3.9c-1.9,9.5-3.7,18.9-5.9,28.3
		c-0.2,1-2.3,2.4-3.5,2.4c-16.7,0.2-33.4,0.3-50.1,0.1c-6-0.1-7.8-3.2-6.4-10.4c2.1-11.1,4.5-22.1,6.8-33.2
		c3.2-14.9,0.7-13.7,16.7-13.7c13.9,0,27.8,0.2,41.7,0c4.2-0.1,5.1,1.5,4.5,5.2c-1.2,8-1.1,8.1-9.3,8c-9.8,0-19.6-0.1-29.4-0.3
		c-3.5-0.1-4.9,1.1-5.4,4.6c-1.2,7.1-2.9,14.1-4.3,21.1C135.5,166.7,135.3,168.4,135,170.8z"/>
	<linearGradient id="SVGID_3_" gradientUnits="userSpaceOnUse" x1="190.9234" y1="155.0429" x2="258.9161" y2="155.0429">
		<stop  offset="0" style="stop-color:#F6BDA3"/>
		<stop  offset="9.640605e-02" style="stop-color:#F1AFA5"/>
		<stop  offset="0.3413" style="stop-color:#E591A9"/>
		<stop  offset="0.4788" style="stop-color:#E085AB"/>
		<stop  offset="0.5956" style="stop-color:#D99DBC"/>
		<stop  offset="0.7249" style="stop-color:#D4B0C9"/>
		<stop  offset="0.8581" style="stop-color:#D1BBD1"/>
		<stop  offset="1" style="stop-color:#D0BFD4"/>
	</linearGradient>
	<path class="st2" d="M211.5,171c13.5,0,26.1,0,39.7,0c-0.7,4-1,7.3-2,10.5c-0.3,1-2.4,2-3.7,2c-15.7,0.1-31.4,0.2-47.1,0
		c-6-0.1-8.3-3.1-7.1-9.5c1.9-10.4,4.2-20.8,6.3-31.2c0.7-3.5,1.6-7,2.3-10.5c0.7-4,2.9-6,7-5.9c16.2,0.1,32.4,0,48.6,0
		c2.9,0,3.6,1.4,3.5,4c-0.4,8.3-1,8.9-9.5,8.9c-9.2,0-18.3-0.1-27.5,0.1c-1.5,0-4.1,1.3-4.4,2.4C215.4,151.2,213.6,160.7,211.5,171z
		"/>
</g>
</svg>
