<?xml version="1.0" encoding="utf-8"?>
<!-- Generator: Adobe Illustrator 25.3.1, SVG Export Plug-In . SVG Version: 6.00 Build 0)  -->
<svg version="1.1" id="图层_1" xmlns="http://www.w3.org/2000/svg" xmlns:xlink="http://www.w3.org/1999/xlink" x="0px" y="0px"
	 viewBox="0 0 700 700" style="enable-background:new 0 0 700 700;" xml:space="preserve">
<style type="text/css">
	.st0{stroke:#FFFFFF;stroke-width:0.4851;stroke-miterlimit:10;}
</style>
<path class="st0" d="M200.5,368.8c5.3-24.6,10.3-45.7,14.1-66.9c1.5-8.1,4.4-11.7,12.7-11c5,0.5,10.1,0.1,15.1,0.1
	c18.2-0.2,18.5-0.1,14.8,18.3c-7.1,35.4-14.7,70.7-21.8,106c-1.7,8.7-5.9,10.8-14.7,12.1c-27.8,4.1-45.1-5.2-54.2-32.7
	c-4.9-14.8-14.4-28.2-23.1-44.6c-5.1,22.8-10.2,43.1-14,63.7c-1.9,10.5-6.5,14.7-17.1,13.2c-4.9-0.7-10.1,0.1-15.1,0.1
	c-13.9,0.1-15.5-1.5-12.6-15.6c4.9-23.9,10.3-47.8,15.3-71.7c2.8-13.3,5.6-26.6,8-39.9c1.1-6.4,3.8-9.9,10.7-8.9
	c0.4,0.1,0.8,0,1.2,0c13.2,0.3,28.7-3.6,38.8,2.2c9.5,5.4,13.2,21,19.2,32.2C184.9,338.8,191.8,352.1,200.5,368.8z"/>
<path class="st0" d="M322.1,396.2c16.9,0,32.3,0.4,47.7-0.4c2.6-0.1,5.9-4.8,7.2-8.1c1.6-4.1,1.6-8.9,2.3-14c-3.4-0.4-5.6-0.9-7.9-1
	c-16.8-1-21.5-9.3-13-24.1c1.3-2.3,5.5-4.1,8.4-4.2c18.3-0.4,36.5-0.1,54.8-0.2c6.7-0.1,9.5,2.9,8.3,9.2c-4.4,22.5-8.8,45-13.9,67.3
	c-0.6,2.5-5.4,5.6-8.3,5.6c-39.6,0.4-79.3,0.6-118.9,0.2c-14.2-0.2-18.6-7.5-15.3-24.7c5-26.3,10.6-52.6,16.2-78.8
	c7.6-35.4,1.8-32.5,39.8-32.5c33,0,66.1,0.4,99.1,0c9.9-0.1,12.1,3.5,10.7,12.4c-2.9,19-2.7,19.2-22.1,19.1
	c-23.3-0.1-46.6-0.2-69.9-0.8c-8.2-0.2-11.5,2.5-12.9,10.8c-2.7,16.8-6.8,33.5-10.2,50.2C323.3,386.5,322.9,390.7,322.1,396.2z"/>
<path class="st0" d="M503.9,396.8c32,0,62.1,0,94.3,0c-1.7,9.4-2.4,17.5-4.8,25c-0.8,2.4-5.8,4.8-8.9,4.8
	c-37.3,0.3-74.6,0.4-111.9,0.1c-14.2-0.1-19.7-7.3-16.9-22.6c4.5-24.8,10-49.5,15.1-74.2c1.7-8.4,3.9-16.6,5.4-25
	c1.7-9.5,6.8-14.2,16.7-14.1c38.5,0.1,76.9,0.1,115.4,0c6.9,0,8.5,3.3,8.2,9.4c-0.9,19.8-2.4,21.2-22.5,21.3
	c-21.8,0-43.5-0.2-65.3,0.3c-3.7,0.1-9.8,3.1-10.5,5.7C513.1,349.8,508.9,372.2,503.9,396.8z"/>
</svg>
